<?xml version="1.0" encoding="UTF-8" standalone="no"?>
<svg
   width="24"
   height="19.65"
   viewBox="0 0 24 19.65"
   fill="none"
   version="1.1"
   id="svg8"
   sodipodi:docname="create-blog.svg"
   inkscape:version="1.1.1 (3bf5ae0d25, 2021-09-20)"
   xmlns:inkscape="http://www.inkscape.org/namespaces/inkscape"
   xmlns:sodipodi="http://sodipodi.sourceforge.net/DTD/sodipodi-0.dtd"
   xmlns="http://www.w3.org/2000/svg"
   xmlns:svg="http://www.w3.org/2000/svg">
  <defs
     id="defs12" />
  <sodipodi:namedview
     id="namedview10"
     pagecolor="#ffffff"
     bordercolor="#666666"
     borderopacity="1.0"
     inkscape:pageshadow="2"
     inkscape:pageopacity="0.0"
     inkscape:pagecheckerboard="0"
     showgrid="false"
     inkscape:snap-global="true"
     width="23px"
     inkscape:zoom="40.6"
     inkscape:cx="11.268473"
     inkscape:cy="10.20936"
     inkscape:window-width="1920"
     inkscape:window-height="1001"
     inkscape:window-x="-9"
     inkscape:window-y="-9"
     inkscape:window-maximized="1"
     inkscape:current-layer="svg8" />
  <path
     d="M 4.49745,0 H 5.35359 C 5.4297,0 5.46775,0.0363596 5.46775,0.109079 V 9.70801 c 0,0.07272 -0.03805,0.10908 -0.11416,0.10908 H 4.49745 C 4.42135,9.81709 4.3833,9.78073 4.3833,9.70801 V 0.109079 C 4.3833,0.0363596 4.42135,0 4.49745,0 Z"
     fill="#04b600"
     id="path2"
     style="fill:#040000;fill-opacity:1" />
  <path
     d="M 0.114152,4.4679 H 9.70294 c 0.0761,0 0.11415,0.03636 0.11415,0.10907 v 0.8181 c 0,0.07271 -0.03805,0.10907 -0.11415,0.10907 H 0.114152 C 0.0380507,5.50414 0,5.46778 0,5.39507 V 4.57697 C 0,4.50426 0.0380507,4.4679 0.114152,4.4679 Z"
     fill="#04b600"
     id="path4"
     style="fill:#040000;fill-opacity:1" />
  <path
     d="m 4.36304,15.5464 v 4.0904 H 8.45349 L 20.5176,7.57273 16.4272,3.48228 Z M 23.6809,4.40945 C 23.782,4.30854 23.8622,4.18867 23.917,4.05672 23.9717,3.92476 23.9999,3.7833 23.9999,3.64044 23.9999,3.49759 23.9717,3.35613 23.917,3.22417 23.8622,3.09222 23.782,2.97235 23.6809,2.87144 L 21.1285,0.318994 C 21.0275,0.217874 20.9077,0.13765 20.7757,0.0829123 20.6438,0.028175 20.5023,0 20.3594,0 20.2166,0 20.0751,0.028175 19.9432,0.0829123 19.8112,0.13765 19.6913,0.217874 19.5904,0.318994 l -1.9961,1.996146 4.0904,4.09045 z"
     fill="#808080"
     id="path6"
     style="fill:#000000;fill-opacity:1" />
</svg>
