<?xml version="1.0" encoding="UTF-8" standalone="no"?>
<svg
   width="19.5"
   height="19.5"
   viewBox="0 0 19.499999 19.5"
   fill="none"
   version="1.1"
   id="svg4"
   sodipodi:docname="create-canvas.svg"
   inkscape:version="1.1.1 (3bf5ae0d25, 2021-09-20)"
   xmlns:inkscape="http://www.inkscape.org/namespaces/inkscape"
   xmlns:sodipodi="http://sodipodi.sourceforge.net/DTD/sodipodi-0.dtd"
   xmlns="http://www.w3.org/2000/svg"
   xmlns:svg="http://www.w3.org/2000/svg">
  <defs
     id="defs8" />
  <sodipodi:namedview
     id="namedview6"
     pagecolor="#ffffff"
     bordercolor="#666666"
     borderopacity="1.0"
     inkscape:pageshadow="2"
     inkscape:pageopacity="0.0"
     inkscape:pagecheckerboard="0"
     showgrid="false"
     width="19px"
     inkscape:zoom="22.627417"
     inkscape:cx="14.606174"
     inkscape:cy="9.8773978"
     inkscape:window-width="1920"
     inkscape:window-height="1001"
     inkscape:window-x="-9"
     inkscape:window-y="-9"
     inkscape:window-maximized="1"
     inkscape:current-layer="svg4" />
  <path
     d="M 16.2566,16.258198 H 9.7566003 V 9.9856974 c -0.715,0.6607996 -1.6575,1.0724996 -2.7083,1.0724996 -2.21003,0 -4.00837,-1.7982996 -4.00837,-4.0082996 0,-1.06311 0.42231,-2.08264 1.17402,-2.83435 0.75171,-0.75171 1.77124,-1.17402 2.83435,-1.17402 2.21,0 4.0082997,1.79834 4.0082997,4.00837 0,1.0508 -0.4117,1.9933 -1.0724997,2.7083 H 16.2566 Z M 17.3399,0.00819735 H 2.1732702 c -1.20249995,0 -2.16666998,0.96417 -2.16666998,2.16667005 V 17.341497 c 0,0.5747 0.22827,1.1258 0.6346,1.5321 0.40632998,0.4063 0.95742998,0.6346 1.53206998,0.6346 H 17.3399 c 0.5747,0 1.1258,-0.2283 1.5321,-0.6346 0.4063,-0.4063 0.6346,-0.9574 0.6346,-1.5321 V 2.1748674 c 0,-0.57464 -0.2283,-1.12574 -0.6346,-1.53207005 -0.4063,-0.40633 -0.9574,-0.6346 -1.5321,-0.6346 z"
     fill="#808080"
     id="path2"
     style="fill:#000000;fill-opacity:1" />
</svg>
