<?xml version="1.0" encoding="UTF-8" standalone="no"?>
<!-- Generator: Adobe Illustrator 19.2.1, SVG Export Plug-In . SVG Version: 6.00 Build 0)  -->

<svg
   version="1.1"
   id="layer"
   x="0px"
   y="0px"
   viewBox="0 0 121.00836 183.125"
   xml:space="preserve"
   sodipodi:docname="portis-io-logo-vector.svg"
   width="121.00836"
   height="183.125"
   inkscape:version="1.1.1 (3bf5ae0d25, 2021-09-20)"
   xmlns:inkscape="http://www.inkscape.org/namespaces/inkscape"
   xmlns:sodipodi="http://sodipodi.sourceforge.net/DTD/sodipodi-0.dtd"
   xmlns="http://www.w3.org/2000/svg"
   xmlns:svg="http://www.w3.org/2000/svg"><defs
   id="defs334" /><sodipodi:namedview
   id="namedview332"
   pagecolor="#ffffff"
   bordercolor="#666666"
   borderopacity="1.0"
   inkscape:pageshadow="2"
   inkscape:pageopacity="0.0"
   inkscape:pagecheckerboard="0"
   showgrid="false"
   inkscape:zoom="1.1947853"
   inkscape:cx="386.26187"
   inkscape:cy="96.67009"
   inkscape:window-width="1920"
   inkscape:window-height="1001"
   inkscape:window-x="-9"
   inkscape:window-y="-9"
   inkscape:window-maximized="1"
   inkscape:current-layer="layer"
   width="600.00836px" />
<style
   type="text/css"
   id="style275">
	.st0{fill:#133444;}
	.st1{fill:#C42370;}
	.st2{fill:#1C4D6B;}
	.st3{fill:#1D4259;}
	.st4{fill:#4B6B9A;}
	.st5{fill:#343535;}
	.st6{fill:#3E5578;}
	.st7{fill:#6DB2D8;}
	.st8{fill:#335F8A;}
	.st9{fill:#529BBA;}
</style>
<g
   id="Layer_2"
   transform="translate(-20.1,-230.775)">
	<g
   id="Layer_1-2">
		<g
   id="Layer_2-2">
			<g
   id="Layer_1-2-2">
				<polygon
   class="st0"
   points="22.9,345.6 22,336.2 26.4,334.3 80.6,310.7 139.2,336.2 117.2,381.7 63.4,389.3 "
   id="polygon277" />
				<path
   class="st1"
   d="M 127.1,308.2 C 117.4,296.5 103.7,289 88.7,287 l -1,-0.1 c -4.7,-0.6 -9.4,-0.6 -14.1,0 l -1,0.1 c -15,2 -28.7,9.6 -38.4,21.2 v 0 l -2.4,4 -4.1,6.7 -3,4.9 v 0 c 0,0.1 -0.1,0.3 -0.2,0.4 v 0.1 l 6.5,3.9 41.5,24.6 8,4.7 v -58.7 l -8,3.6 v -8.8 l 8,-3.6 8,3.6 40.8,18.6 z"
   id="path279" />
				<path
   class="st2"
   d="m 141,350.8 c -0.1,19.3 -8.8,37.5 -23.7,49.7 -5.7,4.7 -12.1,8.2 -19.1,10.6 -5.7,1.9 -11.6,2.8 -17.6,2.8 -33.4,0 -60.5,-29.7 -60.5,-63.1 0,-4.9 0.6,-9.8 1.8,-14.6 l 58.6,34.7 58.6,-34.7 c 1.3,4.8 2,9.7 1.9,14.6 z"
   id="path281" />
				<polygon
   points="72.6,293.7 72.6,286.4 73.6,286.9 80.6,290 "
   id="polygon283" />
				<polygon
   points="80.6,357.6 72.6,352.8 72.6,302.5 80.6,298.8 "
   id="polygon285" />
				<polygon
   class="st3"
   points="136.8,324.4 80.6,298.8 80.6,357.6 "
   id="polygon287" />
				<polygon
   class="st4"
   points="136.8,324.4 80.6,231.2 80.6,298.8 "
   id="polygon289" />
				<path
   class="st5"
   d="m 80.6,298.8 v 58.7 l -8,-4.7 -48.1,-28.4 h -0.1 0.1 c 0,-0.1 0.1,-0.3 0.2,-0.4 v 0 l 7,-11.7 40.8,-18.5 v 8.7 z"
   id="path291" />
				<polygon
   class="st6"
   points="80.6,357.6 72.6,352.8 24.5,324.4 24.6,324.3 72.6,302.5 80.6,298.8 "
   id="polygon293" />
				<polygon
   class="st7"
   points="24.5,324.4 80.6,231.2 80.6,298.8 "
   id="polygon295" />
				<path
   class="st8"
   d="m 57.9,409.1 c 0.8,0.4 1.7,0.7 2.5,1 -0.8,-0.3 -1.6,-0.7 -2.5,-1 z"
   id="path297" />
				<path
   class="st8"
   d="m 60.4,410.1 c 0.8,0.3 1.7,0.7 2.6,0.9 -0.8,-0.2 -1.7,-0.5 -2.6,-0.9 z"
   id="path299" />
				<path
   class="st8"
   d="m 65.3,411.7 c 0.7,0.2 1.3,0.4 2,0.5 -0.7,-0.1 -1.4,-0.3 -2,-0.5 z"
   id="path301" />
				<path
   class="st7"
   d="m 22,336.2 58.6,34.7 c -0.8,5.3 -2.2,10.4 -4.2,15.4 -4.7,11.4 -14.1,23.4 -32.5,14.2 v 0 C 29,388.3 20.3,370.1 20.2,350.8 c 0,-4.9 0.6,-9.8 1.8,-14.6 z"
   id="path303" />
				<path
   class="st9"
   d="m 117.3,400.5 -0.2,0.1 c -0.3,0.2 -0.6,0.5 -0.9,0.7 l -0.1,0.1 c -0.3,0.3 -0.7,0.5 -1,0.8 -0.4,0.3 -0.7,0.6 -1.1,0.8 -0.4,0.2 -0.8,0.5 -1.1,0.8 -0.4,0.3 -0.7,0.4 -1,0.7 l -0.2,0.1 c -0.4,0.2 -0.7,0.4 -1,0.7 0,0 -0.1,0 -0.1,0.1 -0.4,0.2 -0.7,0.4 -1.1,0.7 -0.4,0.2 -0.8,0.4 -1.2,0.7 -0.4,0.2 -0.8,0.4 -1.2,0.6 v 0 l -1.2,0.6 c -0.4,0.2 -0.8,0.4 -1.2,0.6 -0.4,0.2 -0.8,0.4 -1.2,0.6 -0.8,0.4 -1.7,0.7 -2.5,1 -0.8,0.3 -1.7,0.6 -2.6,0.9 -0.3,0.1 -0.7,0.2 -1,0.3 l -1.2,0.4 c -0.7,0.2 -1.3,0.4 -2,0.5 -0.2,0.1 -0.5,0.1 -0.8,0.2 l -0.4,0.1 -1.1,0.2 c -0.4,0.1 -0.6,0.1 -1,0.2 -0.3,0.1 -0.6,0.1 -0.9,0.2 -0.3,0 -0.7,0.1 -1,0.2 -0.2,0 -0.3,0 -0.5,0.1 l -0.8,0.1 h -0.4 c -0.3,0 -0.6,0.1 -0.8,0.1 -0.3,0 -0.7,0.1 -1,0.1 -0.3,0 -0.5,0 -0.8,0 -0.3,0 -0.5,0 -0.7,0 v 0 c -0.3,0 -0.6,0 -0.8,0 -0.2,0 -0.8,0 -1.1,0 h -2.4 c -0.4,0 -0.8,0 -1.1,0 -0.3,0 -0.6,0 -0.8,0 v 0 c -0.2,0 -0.5,0 -0.7,0 -0.2,0 -0.5,0 -0.8,0 -0.3,0 -0.7,-0.1 -1,-0.1 -0.3,0 -0.6,0 -0.8,-0.1 h -0.4 c -0.2,0 -0.5,-0.1 -0.8,-0.1 -0.2,0 -0.3,0 -0.5,-0.1 -0.3,0 -0.7,-0.1 -1,-0.2 -0.3,0 -0.6,-0.1 -0.9,-0.2 -0.3,0 -0.7,-0.1 -1,-0.2 -0.3,-0.1 -0.7,-0.2 -1.1,-0.2 l -0.4,-0.1 c -0.3,0 -0.6,-0.1 -0.8,-0.1 -0.7,-0.2 -1.4,-0.4 -2,-0.5 l -1.2,-0.4 c -0.4,-0.1 -0.7,-0.2 -1,-0.3 -0.9,-0.3 -1.7,-0.6 -2.6,-0.9 -0.9,-0.3 -1.7,-0.7 -2.5,-1 -0.4,-0.2 -0.8,-0.4 -1.2,-0.6 l -1.2,-0.6 -1.2,-0.6 v 0 c -0.4,-0.2 -0.8,-0.4 -1.2,-0.6 -0.4,-0.2 -0.8,-0.4 -1.2,-0.7 -0.4,-0.2 -0.7,-0.4 -1.1,-0.7 l -0.1,-0.1 c -0.4,-0.2 -0.7,-0.4 -1,-0.7 l -0.2,-0.1 c -0.3,-0.2 -0.7,-0.4 -1,-0.7 -0.3,-0.2 -0.8,-0.5 -1.1,-0.8 -0.4,-0.3 -0.8,-0.5 -1.1,-0.8 l -1,-0.8 -0.1,-0.1 c -0.3,-0.2 -0.6,-0.5 -0.9,-0.7 l -0.2,-0.1 c 18.3,9.1 27.8,-2.9 32.5,-14.2 2,-4.9 3.4,-10.1 4.2,-15.4 0.8,5.3 2.2,10.4 4.2,15.4 4.1,11.2 13.6,23.2 31.9,14.1 z"
   id="path305" />
				<path
   class="st8"
   d="m 94,412.3 c 0.7,-0.2 1.4,-0.4 2,-0.5 -0.6,0.1 -1.3,0.3 -2,0.5 z"
   id="path307" />
				<path
   class="st8"
   d="m 98.2,411 c 0.9,-0.3 1.7,-0.6 2.6,-0.9 -0.8,0.4 -1.7,0.7 -2.6,0.9 z"
   id="path309" />
				<path
   class="st8"
   d="m 100.8,410.1 c 0.8,-0.3 1.7,-0.7 2.5,-1 -0.8,0.3 -1.6,0.7 -2.5,1 z"
   id="path311" />
				<path
   class="st4"
   d="m 141,350.8 c -0.1,19.3 -8.8,37.5 -23.7,49.7 -18.3,9.1 -27.8,-2.9 -32.5,-14.2 -2,-4.9 -3.4,-10.1 -4.2,-15.4 l 58.6,-34.7 c 1.2,4.8 1.8,9.7 1.8,14.6 z"
   id="path313" />
			</g>
		</g>
		
		
		
		
		
		
	</g>
</g>
</svg>
