<?xml version="1.0" encoding="UTF-8" standalone="no"?>
<svg
   width="18"
   height="18"
   viewBox="0 0 18 18"
   fill="none"
   version="1.1"
   id="svg9"
   sodipodi:docname="publish-nft.svg"
   inkscape:version="1.1.1 (3bf5ae0d25, 2021-09-20)"
   xmlns:inkscape="http://www.inkscape.org/namespaces/inkscape"
   xmlns:sodipodi="http://sodipodi.sourceforge.net/DTD/sodipodi-0.dtd"
   xmlns="http://www.w3.org/2000/svg"
   xmlns:svg="http://www.w3.org/2000/svg">
  <defs
     id="defs13" />
  <sodipodi:namedview
     id="namedview11"
     pagecolor="#ffffff"
     bordercolor="#666666"
     borderopacity="1.0"
     inkscape:pageshadow="2"
     inkscape:pageopacity="0.0"
     inkscape:pagecheckerboard="0"
     showgrid="false"
     inkscape:zoom="45.111111"
     inkscape:cx="8.9889163"
     inkscape:cy="8.9889163"
     inkscape:window-width="1920"
     inkscape:window-height="1001"
     inkscape:window-x="-9"
     inkscape:window-y="-9"
     inkscape:window-maximized="1"
     inkscape:current-layer="svg9" />
  <mask
     id="path-1-inside-1_101_603"
     fill="white">
    <path
       d="M7 10H1C0.734784 10 0.48043 10.1054 0.292893 10.2929C0.105357 10.4804 0 10.7348 0 11V17C0 17.2652 0.105357 17.5196 0.292893 17.7071C0.48043 17.8946 0.734784 18 1 18H7C7.26522 18 7.51957 17.8946 7.70711 17.7071C7.89464 17.5196 8 17.2652 8 17V11C8 10.7348 7.89464 10.4804 7.70711 10.2929C7.51957 10.1054 7.26522 10 7 10ZM6 16H2V12H6V16ZM17 0H11C10.7348 0 10.4804 0.105357 10.2929 0.292893C10.1054 0.48043 10 0.734784 10 1V7C10 7.26522 10.1054 7.51957 10.2929 7.70711C10.4804 7.89464 10.7348 8 11 8H17C17.2652 8 17.5196 7.89464 17.7071 7.70711C17.8946 7.51957 18 7.26522 18 7V1C18 0.734784 17.8946 0.48043 17.7071 0.292893C17.5196 0.105357 17.2652 0 17 0ZM16 6H12V2H16V6ZM17 13H15V11C15 10.7348 14.8946 10.4804 14.7071 10.2929C14.5196 10.1054 14.2652 10 14 10C13.7348 10 13.4804 10.1054 13.2929 10.2929C13.1054 10.4804 13 10.7348 13 11V13H11C10.7348 13 10.4804 13.1054 10.2929 13.2929C10.1054 13.4804 10 13.7348 10 14C10 14.2652 10.1054 14.5196 10.2929 14.7071C10.4804 14.8946 10.7348 15 11 15H13V17C13 17.2652 13.1054 17.5196 13.2929 17.7071C13.4804 17.8946 13.7348 18 14 18C14.2652 18 14.5196 17.8946 14.7071 17.7071C14.8946 17.5196 15 17.2652 15 17V15H17C17.2652 15 17.5196 14.8946 17.7071 14.7071C17.8946 14.5196 18 14.2652 18 14C18 13.7348 17.8946 13.4804 17.7071 13.2929C17.5196 13.1054 17.2652 13 17 13ZM7 0H1C0.734784 0 0.48043 0.105357 0.292893 0.292893C0.105357 0.48043 0 0.734784 0 1V7C0 7.26522 0.105357 7.51957 0.292893 7.70711C0.48043 7.89464 0.734784 8 1 8H7C7.26522 8 7.51957 7.89464 7.70711 7.70711C7.89464 7.51957 8 7.26522 8 7V1C8 0.734784 7.89464 0.48043 7.70711 0.292893C7.51957 0.105357 7.26522 0 7 0ZM6 6H2V2H6V6Z"
       id="path2" />
  </mask>
  <path
     d="M7 10H1C0.734784 10 0.48043 10.1054 0.292893 10.2929C0.105357 10.4804 0 10.7348 0 11V17C0 17.2652 0.105357 17.5196 0.292893 17.7071C0.48043 17.8946 0.734784 18 1 18H7C7.26522 18 7.51957 17.8946 7.70711 17.7071C7.89464 17.5196 8 17.2652 8 17V11C8 10.7348 7.89464 10.4804 7.70711 10.2929C7.51957 10.1054 7.26522 10 7 10ZM6 16H2V12H6V16ZM17 0H11C10.7348 0 10.4804 0.105357 10.2929 0.292893C10.1054 0.48043 10 0.734784 10 1V7C10 7.26522 10.1054 7.51957 10.2929 7.70711C10.4804 7.89464 10.7348 8 11 8H17C17.2652 8 17.5196 7.89464 17.7071 7.70711C17.8946 7.51957 18 7.26522 18 7V1C18 0.734784 17.8946 0.48043 17.7071 0.292893C17.5196 0.105357 17.2652 0 17 0ZM16 6H12V2H16V6ZM17 13H15V11C15 10.7348 14.8946 10.4804 14.7071 10.2929C14.5196 10.1054 14.2652 10 14 10C13.7348 10 13.4804 10.1054 13.2929 10.2929C13.1054 10.4804 13 10.7348 13 11V13H11C10.7348 13 10.4804 13.1054 10.2929 13.2929C10.1054 13.4804 10 13.7348 10 14C10 14.2652 10.1054 14.5196 10.2929 14.7071C10.4804 14.8946 10.7348 15 11 15H13V17C13 17.2652 13.1054 17.5196 13.2929 17.7071C13.4804 17.8946 13.7348 18 14 18C14.2652 18 14.5196 17.8946 14.7071 17.7071C14.8946 17.5196 15 17.2652 15 17V15H17C17.2652 15 17.5196 14.8946 17.7071 14.7071C17.8946 14.5196 18 14.2652 18 14C18 13.7348 17.8946 13.4804 17.7071 13.2929C17.5196 13.1054 17.2652 13 17 13ZM7 0H1C0.734784 0 0.48043 0.105357 0.292893 0.292893C0.105357 0.48043 0 0.734784 0 1V7C0 7.26522 0.105357 7.51957 0.292893 7.70711C0.48043 7.89464 0.734784 8 1 8H7C7.26522 8 7.51957 7.89464 7.70711 7.70711C7.89464 7.51957 8 7.26522 8 7V1C8 0.734784 7.89464 0.48043 7.70711 0.292893C7.51957 0.105357 7.26522 0 7 0ZM6 6H2V2H6V6Z"
     fill="#808080"
     id="path5" />
  <path
     d="M0 11H-2H0ZM0 17H-2H0ZM6 16V18H8V16H6ZM2 16H0V18H2V16ZM2 12V10H0V12H2ZM6 12H8V10H6V12ZM11 0V-2V0ZM16 6V8H18V6H16ZM12 6H10V8H12V6ZM12 2V0H10V2H12ZM16 2H18V0H16V2ZM15 13H13V15H15V13ZM13 13V15H15V13H13ZM13 15H15V13H13V15ZM15 15V13H13V15H15ZM1 0V-2V0ZM0 1H-2H0ZM0 7H-2H0ZM6 6V8H8V6H6ZM2 6H0V8H2V6ZM2 2V0H0V2H2ZM6 2H8V0H6V2ZM7 8H1V12H7V8ZM1 8C0.20435 8 -0.558712 8.31607 -1.12132 8.87868L1.70711 11.7071C1.51957 11.8946 1.26522 12 1 12V8ZM-1.12132 8.87868C-1.68393 9.44129 -2 10.2044 -2 11H2C2 11.2652 1.89464 11.5196 1.70711 11.7071L-1.12132 8.87868ZM-2 11V17H2V11H-2ZM-2 17C-2 17.7956 -1.68393 18.5587 -1.12132 19.1213L1.70711 16.2929C1.89464 16.4804 2 16.7348 2 17H-2ZM-1.12132 19.1213C-0.558708 19.6839 0.204355 20 1 20V16C1.26521 16 1.51957 16.1054 1.70711 16.2929L-1.12132 19.1213ZM1 20H7V16H1V20ZM7 20C7.79565 20 8.55871 19.6839 9.12132 19.1213L6.29289 16.2929C6.48043 16.1054 6.73479 16 7 16V20ZM9.12132 19.1213C9.68393 18.5587 10 17.7956 10 17H6C6 16.7348 6.10536 16.4804 6.29289 16.2929L9.12132 19.1213ZM10 17V11H6V17H10ZM10 11C10 10.2043 9.68393 9.44129 9.12132 8.87868L6.29289 11.7071C6.10536 11.5196 6 11.2652 6 11H10ZM9.12132 8.87868C8.55871 8.31607 7.79565 8 7 8V12C6.73478 12 6.48043 11.8946 6.29289 11.7071L9.12132 8.87868ZM6 14H2V18H6V14ZM4 16V12H0V16H4ZM2 14H6V10H2V14ZM4 12V16H8V12H4ZM17 -2H11V2H17V-2ZM11 -2C10.2044 -2 9.44129 -1.68393 8.87868 -1.12132L11.7071 1.70711C11.5196 1.89464 11.2652 2 11 2V-2ZM8.87868 -1.12132C8.31607 -0.558712 8 0.20435 8 1H12C12 1.26522 11.8946 1.51957 11.7071 1.70711L8.87868 -1.12132ZM8 1V7H12V1H8ZM8 7C8 7.79565 8.31607 8.55871 8.87868 9.12132L11.7071 6.29289C11.8946 6.48043 12 6.73478 12 7H8ZM8.87868 9.12132C9.44129 9.68393 10.2043 10 11 10V6C11.2652 6 11.5196 6.10536 11.7071 6.29289L8.87868 9.12132ZM11 10H17V6H11V10ZM17 10C17.7956 10 18.5587 9.68393 19.1213 9.12132L16.2929 6.29289C16.4804 6.10536 16.7348 6 17 6V10ZM19.1213 9.12132C19.6839 8.55871 20 7.79565 20 7H16C16 6.73479 16.1054 6.48043 16.2929 6.29289L19.1213 9.12132ZM20 7V1H16V7H20ZM20 1C20 0.204355 19.6839 -0.558708 19.1213 -1.12132L16.2929 1.70711C16.1054 1.51957 16 1.26521 16 1H20ZM19.1213 -1.12132C18.5587 -1.68393 17.7956 -2 17 -2V2C16.7348 2 16.4804 1.89464 16.2929 1.70711L19.1213 -1.12132ZM16 4H12V8H16V4ZM14 6V2H10V6H14ZM12 4H16V0H12V4ZM14 2V6H18V2H14ZM17 11H15V15H17V11ZM17 13V11H13V13H17ZM17 11C17 10.2044 16.6839 9.44129 16.1213 8.87868L13.2929 11.7071C13.1054 11.5196 13 11.2652 13 11H17ZM16.1213 8.87868C15.5587 8.31607 14.7956 8 14 8V12C13.7348 12 13.4804 11.8946 13.2929 11.7071L16.1213 8.87868ZM14 8C13.2044 8 12.4413 8.31607 11.8787 8.87868L14.7071 11.7071C14.5196 11.8946 14.2652 12 14 12V8ZM11.8787 8.87868C11.3161 9.44129 11 10.2044 11 11H15C15 11.2652 14.8946 11.5196 14.7071 11.7071L11.8787 8.87868ZM11 11V13H15V11H11ZM13 11H11V15H13V11ZM11 11C10.2044 11 9.44129 11.3161 8.87868 11.8787L11.7071 14.7071C11.5196 14.8946 11.2652 15 11 15V11ZM8.87868 11.8787C8.31607 12.4413 8 13.2044 8 14H12C12 14.2652 11.8946 14.5196 11.7071 14.7071L8.87868 11.8787ZM8 14C8 14.7956 8.31607 15.5587 8.87868 16.1213L11.7071 13.2929C11.8946 13.4804 12 13.7348 12 14H8ZM8.87868 16.1213C9.44129 16.6839 10.2044 17 11 17V13C11.2652 13 11.5196 13.1054 11.7071 13.2929L8.87868 16.1213ZM11 17H13V13H11V17ZM11 15V17H15V15H11ZM11 17C11 17.7956 11.3161 18.5587 11.8787 19.1213L14.7071 16.2929C14.8946 16.4804 15 16.7348 15 17H11ZM11.8787 19.1213C12.4413 19.6839 13.2044 20 14 20V16C14.2652 16 14.5196 16.1054 14.7071 16.2929L11.8787 19.1213ZM14 20C14.7956 20 15.5587 19.6839 16.1213 19.1213L13.2929 16.2929C13.4804 16.1054 13.7348 16 14 16V20ZM16.1213 19.1213C16.6839 18.5587 17 17.7956 17 17H13C13 16.7348 13.1054 16.4804 13.2929 16.2929L16.1213 19.1213ZM17 17V15H13V17H17ZM15 17H17V13H15V17ZM17 17C17.7956 17 18.5587 16.6839 19.1213 16.1213L16.2929 13.2929C16.4804 13.1054 16.7348 13 17 13V17ZM19.1213 16.1213C19.6839 15.5587 20 14.7956 20 14H16C16 13.7348 16.1054 13.4804 16.2929 13.2929L19.1213 16.1213ZM20 14C20 13.2044 19.6839 12.4413 19.1213 11.8787L16.2929 14.7071C16.1054 14.5196 16 14.2652 16 14H20ZM19.1213 11.8787C18.5587 11.3161 17.7956 11 17 11V15C16.7348 15 16.4804 14.8946 16.2929 14.7071L19.1213 11.8787ZM7 -2H1V2H7V-2ZM1 -2C0.204351 -2 -0.558711 -1.68393 -1.12132 -1.12132L1.70711 1.70711C1.51957 1.89464 1.26522 2 1 2V-2ZM-1.12132 -1.12132C-1.68393 -0.558711 -2 0.204351 -2 1H2C2 1.26522 1.89464 1.51957 1.70711 1.70711L-1.12132 -1.12132ZM-2 1V7H2V1H-2ZM-2 7C-2 7.79565 -1.68393 8.55871 -1.12132 9.12132L1.70711 6.29289C1.89464 6.48043 2 6.73478 2 7H-2ZM-1.12132 9.12132C-0.558712 9.68393 0.20435 10 1 10V6C1.26522 6 1.51957 6.10536 1.70711 6.29289L-1.12132 9.12132ZM1 10H7V6H1V10ZM7 10C7.79565 10 8.55871 9.68393 9.12132 9.12132L6.29289 6.29289C6.48043 6.10536 6.73478 6 7 6V10ZM9.12132 9.12132C9.68393 8.55871 10 7.79565 10 7H6C6 6.73478 6.10536 6.48043 6.29289 6.29289L9.12132 9.12132ZM10 7V1H6V7H10ZM10 1C10 0.20435 9.68393 -0.558712 9.12132 -1.12132L6.29289 1.70711C6.10536 1.51957 6 1.26522 6 1H10ZM9.12132 -1.12132C8.55871 -1.68393 7.79565 -2 7 -2V2C6.73478 2 6.48043 1.89464 6.29289 1.70711L9.12132 -1.12132ZM6 4H2V8H6V4ZM4 6V2H0V6H4ZM2 4H6V0H2V4ZM4 2V6H8V2H4Z"
     fill="#808080"
     mask="url(#path-1-inside-1_101_603)"
     id="path7"
     style="fill:#000000;fill-opacity:1" />
</svg>
