<svg width="22" height="22" viewBox="0 0 22 22" fill="none" xmlns="http://www.w3.org/2000/svg">
<path d="M1.83325 3.66025C1.83493 3.41951 1.93124 3.1891 2.10139 3.01878C2.27153 2.84847 2.50185 2.75192 2.74259 2.75H19.2573C19.7596 2.75 20.1666 3.15792 20.1666 3.66025V18.3398C20.1649 18.5805 20.0686 18.8109 19.8985 18.9812C19.7283 19.1515 19.498 19.2481 19.2573 19.25H2.74259C2.50133 19.2498 2.27004 19.1537 2.09953 18.9831C1.92903 18.8124 1.83325 18.581 1.83325 18.3398V3.66025ZM10.9999 4.58333V17.4167H18.3333V4.58333H10.9999ZM11.9166 6.41667H17.4166V8.25H11.9166V6.41667ZM11.9166 9.16667H17.4166V11H11.9166V9.16667Z" fill="black"/>
</svg>
